<svg width="20" height="20" viewBox="0 0 20 20" fill="none" xmlns="http://www.w3.org/2000/svg">
  <path d="M18.3337 10C18.3337 14.6024 14.6027 18.3333 10.0003 18.3333M18.3337 10C18.3337 5.39763 14.6027 1.66667 10.0003 1.66667M18.3337 10H1.66699M10.0003 18.3333C5.39795 18.3333 1.66699 14.6024 1.66699 10M10.0003 18.3333C12.0847 16.0514 13.2693 13.09 13.3337 10C13.2693 6.91003 12.0847 3.94863 10.0003 1.66667M10.0003 18.3333C7.91593 16.0514 6.73136 13.09 6.66699 10C6.73136 6.91003 7.91593 3.94863 10.0003 1.66667M1.66699 10C1.66699 5.39763 5.39795 1.66667 10.0003 1.66667" stroke="#232323" stroke-width="2" stroke-linecap="round" stroke-linejoin="round"/>
</svg>
