<svg width="234" height="234" viewBox="0 0 234 234" fill="none" xmlns="http://www.w3.org/2000/svg">
<rect width="234" height="234" fill="white"/>
<path d="M65.4021 160.193L59.2281 163.757L59.5633 166.015L60.9974 166.822L57.5146 171.693L60.6668 172.12L60.5597 173.612L59.107 174.451L57.0862 177.661L60.6993 177.209L61.1416 177.975L64.1169 178.096L63.0879 181.346L64.5033 183.798L68.9406 182.257L70.4632 183.217L74.7142 182.193L75.4219 183.419L79.5565 184.709L84.6131 184.241L86.7362 187.919L97.3894 187.08L105.071 188.878L113.732 193.58L131.165 183.515L139.588 180.491L149.346 176.758L157.748 161.279L160.4 149.358L166.375 138.35L169.202 133.141L168.78 126.708L178.167 123.66L187.822 123.451L197.097 123.946L199.393 127.627L204.099 127.747L207.763 119.239L210.278 119.248L209.139 110.747L200.402 101.661L187.883 100.784L183.918 92.1441L174.673 83.3427L171.92 73.0927L166.219 59.9863L161.818 50.5175L156.569 42.8679L152.763 40.6703L152.955 36.74L149.535 30.1468L140.889 25.1549" stroke="#1E6A62" stroke-width="3" stroke-linecap="round" stroke-linejoin="round"/>
</svg>
