<svg width="234" height="234" viewBox="0 0 234 234" fill="none" xmlns="http://www.w3.org/2000/svg">
<rect width="234" height="234" fill="white"/>
<path d="M205.61 170.419L207 171.581L207 174.368L204.22 176.458L199.587 181.568L195.649 185.516L194.49 189L183.371 189L178.737 188.071L175.494 187.142L172.251 185.516L165.533 183.89L159.51 182.497L153.023 182.497L148.853 179.245L145.61 181.568L144.915 184.355L136.807 184.355L129.162 183.89L123.834 177.852L117.811 177.852L113.873 176.458L108.313 173.206L105.069 170.419L103.448 168.561L96.9614 166.935L94.6448 164.148L89.5483 162.987L86.305 158.342L84.6834 155.323L87.695 151.839L87.695 147.426L83.5251 144.639L82.1351 143.245L82.1351 140.226L79.5869 137.671L76.3436 135.581L70.7838 134.419L67.5405 132.097L63.3707 130.006L60.1274 126.755L58.2741 125.361L55.4942 120.716L49.2394 116.768L40.4363 113.981L37.4247 111.658L37.4247 108.639L37.4247 105.387L38.8147 102.6L38.8147 99.8129L38.8147 97.2581L40.4363 94.7032L37.4247 92.1484L40.4363 89.129L38.1197 88.4323L37.4247 89.129L35.1081 87.5032L32.3282 87.5032L31.1699 86.1097L31.1699 83.5548L28.8533 86.1097L27 82.3935L28.8533 79.8387L30.4749 77.9806L31.1699 75.1935L30.4749 72.6387L30.4749 69.1548L28.8533 64.7419L28.8533 63.1161L27 61.9548L27 57.0774L27 53.8258L27 51.5032L28.8533 48.2516L31.1699 46.3936L32.3282 45L35.1081 45L40.4363 45L40.8996 47.5548L42.2896 51.5032L47.6178 53.8258L51.3243 53.129L54.3359 56.1484L58.2741 54.9871L57.5792 52.6645L60.1274 50.1097L63.3707 48.2516L67.5405 48.2516L71.9421 50.1097L75.6487 48.9484L79.5869 48.9484L83.5251 50.1097L87.695 47.5548L91.4015 47.5548L93.7182 50.1097L95.1081 51.9677L98.1197 50.1097L100.9 50.1097L105.07 48.2516L110.166 48.9484L112.946 50.1097L117.116 51.5032L118.274 52.6645L118.274 54.9871L122.676 59.1678L125.919 59.1678L129.625 64.7419L133.332 69.1548L135.88 71.7097L133.332 71.7097L133.332 70.5484L128.931 73.3355L126.382 75.8903L129.625 77.9807L134.954 77.9807L135.88 75.1936L140.282 77.9807L143.757 77.9807L147.927 77.9807L150.938 75.1936L155.571 75.8903L158.583 79.1419L162.521 79.1419L165.533 81.4645L169.239 83.5548L172.946 83.5548L174.336 86.1097L177.116 90.5226L177.116 97.2581L174.336 100.974L175.958 105.387L178.274 110.032L179.896 115.606L182.444 119.555L182.444 122.342L182.444 125.361L179.896 130.006L182.444 134.419L182.444 137.671L183.602 141.852L185.919 144.639L189.625 145.568L193.564 149.748L196.112 150.91L199.355 152.768L200.977 155.323" stroke="#1E6A62" stroke-width="3" stroke-linecap="round" stroke-linejoin="round"/>
</svg>
