<svg width="234" height="234" viewBox="0 0 234 234" fill="none" xmlns="http://www.w3.org/2000/svg">
<g clip-path="url(#clip0_775_14068)">
<rect width="234" height="234" fill="white"/>
<path d="M29.9985 166.835L29.4136 170.759L38.8983 200.781L40.9451 199.092L43.2193 197.215L44.3276 194.388L47.3128 193.836L48.6485 190.822L64.506 182.705L65.2499 177.121L66.0225 173.425L68.0693 171.735L69.5708 173.555L74.3465 169.613L78.2414 168.31L81.8801 165.307L83.9268 163.618L85.0639 162.68L88.6122 162.81L92.092 161.467L97.7227 168.29L104.155 173.304L106.414 182.526L109.634 188.28L113.113 186.938L110.962 178.773L110.945 174.582L112.894 169.532L109.111 163.096L108.184 159.656L101.416 153.772L97.1101 146.238L101.341 145.805L108.459 141.459L110.982 134.789L114.076 135.294L113.628 142.164L117.205 144.182L127.987 147.517L133.52 150.979L138.372 155.004L145.002 157.943L148.193 161.809L153.174 162.286L152.741 158.055L150.114 154.871L149.038 150.789L150.76 145.927L148.53 138.592L150.53 130.824L152.79 115.959L155.314 109.289L156.906 107.975L155.307 102.795L166.858 87.1442L173.295 83.3616L181.846 79.3625L184.279 75.8251L182.937 72.3454L185.796 66.5448L194.307 62.9608L198.434 52.6735L199.376 45.0139L200.99 39.0941L203.9 30.5755L205.434 25.4859L206.968 20.3964L207.485 15" stroke="#1E6A62" stroke-width="3" stroke-linecap="round" stroke-linejoin="round"/>
</g>
<defs>
<clipPath id="clip0_775_14068">
<rect width="234" height="234" fill="white"/>
</clipPath>
</defs>
</svg>
