<svg width="234" height="234" viewBox="0 0 234 234" fill="none" xmlns="http://www.w3.org/2000/svg">
<rect width="234" height="234" fill="white"/>
<path d="M30 23V28.3527V32.7018L32.6871 38.0545L30 43.0727V49.0945L32.6871 54.7818V61.1382L31.3436 70.5055L32.6871 78.5345L36.382 83.8873H43.4357L47.1305 89.24L53.8484 91.2473L61.9098 94.2582H68.2917L72.3225 92.92L74.0019 95.2618V101.284L76.0173 107.975L79.3762 114.665L83.7428 117.342L87.4376 123.698L91.4683 127.044H98.5221L106.919 130.724L109.271 136.076V141.764L113.973 144.44L116.324 148.789L118.004 154.142V160.498L121.027 164.847L122.706 168.527L125.058 171.204L131.104 173.88L136.142 178.229L142.188 181.909L150.25 183.916L151.593 187.262H159.655L167.044 191.945H176.113V196.964L181.152 202.985L185.518 207L188.541 202.985L190.221 199.64L193.58 194.956H196.939H200.298L205 193.284V189.938L202.649 187.262V180.571L201.977 177.225L200.633 172.207L196.939 173.88V178.229L193.58 177.225L184.511 173.211L178.8 169.531L169.395 168.527L167.044 164.847L159.655 161.836L153.608 157.822L148.57 156.484L142.188 154.142L136.142 152.804L131.104 150.796L131.775 147.785H136.142L135.134 145.109L136.142 141.764L138.157 136.076L142.188 130.724V125.705L134.127 123.029V117.342V114.665V111.655H138.157H142.188V107.975H145.547L142.188 101.284V94.2582L140.173 87.5673V83.8873L136.142 82.5491H134.127L138.157 78.5345V73.8509L131.775 70.5055H128.417L121.027 67.8291L113.973 70.5055L111.286 72.1782L109.271 73.8509L104.904 69.1673L100.537 64.4836L95.1631 63.1455L91.4683 58.1273L87.4376 56.4545L85.7582 51.1018L83.7428 56.4545L79.3762 54.7818L76.0173 58.1273H72.3225L68.2917 54.7818L63.2534 52.1055L58.8868 51.1018L55.8637 47.0873L52.1689 41.0655" stroke="#1E6A62" stroke-width="3" stroke-linecap="round" stroke-linejoin="round"/>
</svg>
