<svg width="234" height="234" viewBox="0 0 234 234" fill="none" xmlns="http://www.w3.org/2000/svg">
<rect width="234" height="234" fill="white"/>
<path d="M171.547 18L173.151 23.4685L169.623 28.6154V33.7622L173.151 42.4476L177.321 45.3427L181.811 47.2727L184.057 49.8462V56.9231L188.547 59.1748L190.792 61.4266L192.717 59.1748V54.993H196.245L197.849 61.4266L196.245 65.2867H192.717V68.1818V72.042V76.2238L196.245 74.6154V72.042L199.132 69.1469L202.34 68.1818L206.189 69.1469L199.132 76.2238V83.3007V94.5594V105.497L204.585 108.392L206.189 114.182L209.075 120.294L211 128.979H209.075L202.34 127.049L190.792 128.979L184.057 130.587L178.604 130.909L173.151 134.769L169.623 137.986L167.698 141.846L165.453 145.385L169.623 151.175L173.151 153.748H186.302H190.792H192.717L199.132 156.965H202.34L204.585 159.86H209.075L206.189 164.364H202.34L199.132 167.902L192.717 174.336L190.792 181.734L186.302 186.238L184.057 190.741L180.208 197.496H177.321H173.151L168.981 198.783L165.453 202H160.321V198.783H151.981L144.283 200.392V198.783V193.636L148.453 190.741L151.981 188.168H160.321L158.075 184.629H151.981L148.453 181.734L144.283 178.196L140.113 174.336L135.302 172.406H126.321L122.151 165.972H117.34H111.887L107.075 167.902L97.4528 165.972L90.0755 167.902H83.0189H76.6038L72.434 169.189L67.3019 171.119L61.2075 172.406L58.9623 174.336L54.7925 176.587H49.0189H44.8491L43.566 174.336L41.6415 169.189H34.5849L28.8113 171.119L32.9811 165.972L28.8113 161.79L26.8868 156.965L25.283 153.748L24 151.175L31.3774 146.993L34.5849 145.385H36.8302L38.1132 140.559H43.566L49.0189 134.769L54.7925 137.986H58.9623V141.846L63.1321 137.986L66.3396 139.594L69.8679 137.986L74.3585 134.769L78.2075 137.986H84.6226H93.6038L97.4528 139.594H107.075H114.132L119.906 134.769H123.755L119.906 127.049V122.545V116.112V111.608L122.151 108.392L119.906 105.497L123.755 102.923H126.321L129.208 105.497V98.4196L133.057 95.8462L140.113 90.3776H144.283H148.453L151.981 85.8741H156.472H160.321L165.453 83.3007V78.7972" stroke="#1E6A62" stroke-width="5" stroke-linecap="round" stroke-linejoin="round"/>
</svg>
