<svg width="234" height="234" viewBox="0 0 234 234" fill="none" xmlns="http://www.w3.org/2000/svg">
<g clip-path="url(#clip0_775_14067)">
<rect width="234" height="234" fill="white"/>
<path d="M219.868 42.3574L218.397 43.0544L217.756 42.4881L213.834 42.7308L210.666 40.5038L202.065 43.4588L196.731 40.457L188.711 47.9199L185.373 45.1376L183.038 46.2808L181.136 46.6588L179.707 44.1943L178.265 41.81L173.394 41.6121L169.568 42.5061L167.977 42.8574L163.654 43.0536L159.379 44.7971L155.403 48.4271L151.18 51.7077L146.906 53.4476L146.309 53.3484L145.813 56.3303L142.483 57.9201L139.85 62.6919L137.912 65.1276L134.731 65.824L131.104 69.2043L127.028 71.5919L126.433 75.1703L123.302 75.5685L121.016 78.2539L120.817 79.4468L118.63 81.5346L118.084 84.815L114.904 87.3493L111.475 87.6977L107.896 87.1019L104.765 89.3391L101.436 92.7691L98.6033 95.0558L97.1623 96.3483L94.4793 101.417L91.0502 103.605L88.864 107.532L88.467 113.596L87.5237 119.263L85.4367 120.753L85.1388 122.542L82.6047 126.718L79.8219 130.546L79.4744 132.634L75.7973 134.472L73.0638 136.164L70.1315 137.207L66.7524 139.096L62.7266 139.345L61.3849 141.881L60.69 146.055L56.466 149.336L54.578 153.313L51.2486 156.743L50.106 159.924L46.776 161.515L44.3906 161.118L38.6751 164.15L33.8553 171.01L32.9618 176.377L28.9361 178.466L22.9225 179.61L17.2566 180.506L15.9658 188.26L18.8996 196.41L25.7586 197.552L28.8407 201.13L30.0336 201.329L34.2086 202.024L39.8747 202.967L46.6341 201.028L51.4056 201.822L56.3756 201.424L59.3575 201.92L63.0844 196.104L64.0278 190.438L63.6782 181.491L64.5717 176.124L63.826 175.08L64.2728 172.396L64.9183 168.52L66.4584 164.792L71.1799 162.206L74.8075 160.665L76.895 161.013L78.9326 159.819L81.8651 158.775L84.4988 157.681L85.0946 154.103L88.1262 150.623L90.5115 151.02L88.9715 152.909L87.4807 154.5L88.0778 158.277L89.6675 156.09L91.9536 155.245L93.7433 155.543L94.4889 158.425L100.751 159.468L106.69 158.715L110.57 158.137L115.141 158.383L120.553 157.779L127.255 156.686L131.23 155.109L134.305 153.125L136.058 149.782L140.052 147.988L145.317 145.191L145.68 142.842L146.261 139.073L145.475 134.975L142.609 131.403L143.159 127.841L142.059 124.66L140.842 122.637L140.672 119.857L141.91 115.711L140.759 111.269L138.054 110.852L134.408 110.29L134.817 107.637L135.324 104.35L138.337 104.814L138.97 104.912L142.222 101.781L145.281 103.768L147.062 102.528L149.206 100.135L150.809 100.382L154.112 98.0698L156.672 97.3425L159.912 95.1662L163.937 91.885L166.11 88.8555L170.046 84.0083L175.439 83.6075L179.854 80.9322L183.948 78.8103L188.183 79.4633L191.21 76.2594L193.564 72.3397L197.724 71.6154L201.265 68.0211L202.646 63.0337L199.822 58.0099" stroke="#1E6A62" stroke-width="3" stroke-linecap="round" stroke-linejoin="round"/>
</g>
<defs>
<clipPath id="clip0_775_14067">
<rect width="234" height="234" fill="white"/>
</clipPath>
</defs>
</svg>
