<svg width="234" height="234" viewBox="0 0 234 234" fill="none" xmlns="http://www.w3.org/2000/svg">
<rect width="234" height="234" fill="white"/>
<path d="M132.2 36L129 42.4236H120.2V46.4384L115.4 49.6502L112.2 46.4384H109L99.4 42.4236H91.4H82.6L77.8 36L67.4 42.4236L61.8 36L54.6 38.4089L49 42.4236L44.2 46.4384L39.4 49.6502L35.4 56.8768V62.4975V68.9212L33 74.5419V79.3596V86.5862L39.4 91.4039V93.8128L44.2 97.0246V91.4039V86.5862L50.6 93.0099L54.6 97.0246L57.8 102.645V107.463L61.8 113.084L65 116.296V125.128V132.355L67.4 135.567L65 140.384V146.005V153.232H67.4V159.655L72.2 168.488L77.8 171.7V177.32L91.4 182.941L93.8 186.956V190.167L96.2 199H99.4L101.8 195.788L103.4 189.365L107.4 184.547L115.4 182.941H122.6V184.547H115.4V188.562L121.8 189.365L125 188.562L127.4 194.182L143.4 186.956L169.8 194.182L188.2 177.32L201 159.655L195.4 148.414H188.2L177.8 146.005L174.6 140.384V132.355L169.8 125.128L161.8 126.734L153 125.128L148.2 126.734V116.296V109.069" stroke="#1E6A62" stroke-width="5" stroke-linecap="round" stroke-linejoin="round"/>
</svg>
