<svg width="234" height="234" viewBox="0 0 234 234" fill="none" xmlns="http://www.w3.org/2000/svg">
<rect width="234" height="234" fill="white"/>
<path d="M98.0744 15H84.8058L75.2524 27.6839H64.6375L55.6149 32.4404V50.4093L49.7767 58.3368V68.9067L55.6149 82.1192L49.7767 100.617L45 120.171V130.741L49.7767 141.839V167.207L60.3916 180.948H91.1748L104.974 193.104H117.712L124.081 198.917L133.634 202.617H137.88L141.595 207.902L146.372 208.959L149.026 214.772H157.518L164.417 211.601L169.194 214.772H171.848L176.094 219L181.401 214.772V212.658L185.116 211.601L190.955 214.772L198.385 207.902L202.631 208.959L209 207.902V198.917" stroke="#1E6A62" stroke-width="5" stroke-linecap="round" stroke-linejoin="round"/>
</svg>
