<svg width="234" height="234" viewBox="0 0 234 234" fill="none" xmlns="http://www.w3.org/2000/svg">
<rect width="234" height="234" fill="white"/>
<path d="M30.5751 30.5189L30.933 28.6128L33.8938 31.1421L33.4762 33.3659L40.1135 34.6122L42.9029 41.7137L46.8853 42.4615L53.9651 43.7909L56.62 44.2894L55.9042 48.1016L54.7111 54.4553L53.697 59.8559L54.2316 65.5474L53.3368 70.3126L58.4254 71.2682L63.6507 70.276L68.9606 71.2731L75.0286 69.4526L75.24 74.4255L77.8851 79.8555L81.425 80.5202L81.3978 86.764L84.1871 93.8654L83.2923 98.6307L86.3897 99.2123L89.4871 99.7939L90.2951 101.59L92.0651 101.922L91.2896 106.052L94.387 106.634L97.2533 112.105L98.6254 104.799L102.021 103.792L101.899 112.978L98.9787 119.994L99.573 125.368L100.533 132.454L105.452 129.432L108.328 129.972L112.311 130.719L113.671 136.895L114.504 140.998L117.158 141.496L118.571 143.735L121.72 140.38L122.436 136.567L123.796 142.743L129.769 143.864L133.309 144.529L136.849 145.194L134.058 146.643L133.043 152.043L132.507 154.903L134.94 155.36L136.352 157.598L137.986 159.878L140.198 160.294L144.538 159.135L146.972 159.592L150.512 160.257L149.558 165.34L148.722 169.787L151.181 172.551L154.278 173.133L157.622 176.063L155.579 179.626L156.906 179.875L156.369 182.734L153.033 183.423L149.272 182.717L148.616 186.212L151.713 186.793L153.67 189.792L154.401 193.218L160.086 190.997L162.912 186.923L163.449 184.064L165.977 181.579L170.156 180.061L173.109 178.971L176.428 179.594L178.121 181.557L179.379 187.055L181.275 190.371L185.479 191.16L187.741 196.19L190.463 199.99L193.34 200.53L196.146 206.319L195.609 209.178L198.707 209.76L201.489 213.242" stroke="#1E6A62" stroke-width="5" stroke-linecap="round" stroke-linejoin="round"/>
</svg>
